<svg width="26" height="26" viewBox="0 0 26 26" fill="none" xmlns="http://www.w3.org/2000/svg">
<path d="M0 5C0 2.23858 2.23858 0 5 0H26V26H0V5Z" fill="white"/>
<path d="M5.42857 2C3.5375 2 2 3.5375 2 5.42857V22.5714C2 24.4625 3.5375 26 5.42857 26H22.5714C24.4625 26 26 24.4625 26 22.5714V5.42857C26 3.5375 24.4625 2 22.5714 2H5.42857ZM5.69643 11.1179H9.25893V22.5714H5.69643V11.1179ZM9.5375 7.49107C9.5375 8.63214 8.61607 9.55357 7.475 9.55357C6.33393 9.55357 5.4125 8.63214 5.4125 7.49107C5.4125 6.35 6.33393 5.42857 7.475 5.42857C8.61607 5.42857 9.5375 6.35 9.5375 7.49107ZM19.0304 22.5714V17C19.0304 15.6714 19.0036 13.9625 17.1821 13.9625C15.3286 13.9625 15.0446 15.4089 15.0446 16.9036V22.5714H11.4875V11.1179H14.9V12.6821H14.9482C15.425 11.7821 16.5875 10.8339 18.3179 10.8339C21.9179 10.8339 22.5875 13.2071 22.5875 16.2929V22.5714H19.0304Z" fill="#2867B2"/>
</svg>
