<svg width="439" height="90" viewBox="0 0 439 90" fill="none" xmlns="http://www.w3.org/2000/svg">
<path d="M391.068 79.8307C391.821 80.1728 392.778 80.4806 393.941 80.7542C395.172 81.0963 396.37 81.2673 397.532 81.2673C401.295 81.2673 404.236 80.4122 406.357 78.702C408.478 77.0603 410.393 74.3582 412.103 70.5958C407.793 62.387 403.757 53.6993 399.995 44.5328C396.301 35.2979 393.223 25.9604 390.76 16.5203H401.021C401.774 19.5986 402.663 22.9163 403.689 26.4735C404.784 30.0306 405.981 33.6904 407.28 37.4527C408.58 41.2151 409.983 44.9775 411.487 48.7399C412.992 52.5022 414.566 56.1278 416.208 59.6165C418.807 52.4338 421.064 45.3195 422.98 38.2736C424.895 31.2277 426.708 23.9766 428.418 16.5203H438.269C435.806 26.5761 433.07 36.2556 430.06 45.5589C427.05 54.7939 423.801 63.4473 420.312 71.5193C418.944 74.5976 417.507 77.2313 416.002 79.4203C414.566 81.6777 412.958 83.5247 411.18 84.9612C409.401 86.3978 407.383 87.4581 405.126 88.1422C402.937 88.8262 400.44 89.1683 397.635 89.1683C396.883 89.1683 396.096 89.0999 395.275 88.963C394.454 88.8946 393.633 88.7578 392.812 88.5526C392.06 88.4158 391.342 88.2448 390.658 88.0396C390.042 87.8343 389.597 87.6633 389.324 87.5265L391.068 79.8307Z" fill="black"/>
<path d="M354.623 63.0026C356.88 63.0026 358.864 62.9684 360.574 62.9C362.352 62.7632 363.823 62.558 364.986 62.2843V46.3798C364.302 46.0377 363.173 45.7641 361.6 45.5589C360.095 45.2853 358.248 45.1484 356.059 45.1484C354.623 45.1484 353.083 45.2511 351.442 45.4563C349.868 45.6615 348.398 46.1061 347.029 46.7902C345.73 47.4059 344.635 48.2952 343.746 49.4581C342.857 50.5526 342.412 52.0233 342.412 53.8703C342.412 57.2907 343.506 59.6849 345.695 61.053C347.884 62.3528 350.86 63.0026 354.623 63.0026ZM353.802 15.1863C357.632 15.1863 360.848 15.6993 363.447 16.7254C366.115 17.6831 368.235 19.0855 369.809 20.9325C371.451 22.711 372.613 24.8658 373.298 27.3969C373.982 29.8595 374.324 32.5958 374.324 35.6057V68.954C373.503 69.0908 372.34 69.296 370.835 69.5697C369.398 69.7749 367.757 69.9801 365.91 70.1853C364.063 70.3906 362.045 70.5616 359.856 70.6984C357.735 70.9036 355.614 71.0062 353.494 71.0062C350.484 71.0062 347.713 70.6984 345.182 70.0827C342.651 69.4671 340.462 68.5094 338.615 67.2096C336.768 65.8415 335.332 64.0629 334.306 61.8739C333.28 59.6849 332.767 57.0512 332.767 53.9729C332.767 51.0314 333.348 48.5004 334.511 46.3798C335.742 44.2592 337.384 42.549 339.436 41.2493C341.488 39.9495 343.883 38.9918 346.619 38.3762C349.355 37.7605 352.228 37.4527 355.238 37.4527C356.196 37.4527 357.188 37.5211 358.214 37.6579C359.24 37.7263 360.198 37.8631 361.087 38.0683C362.045 38.2052 362.866 38.342 363.55 38.4788C364.234 38.6156 364.713 38.7182 364.986 38.7866V36.1188C364.986 34.5454 364.815 33.0062 364.473 31.5013C364.131 29.9279 363.515 28.5598 362.626 27.3969C361.737 26.1656 360.505 25.2079 358.932 24.5238C357.427 23.7713 355.443 23.3951 352.981 23.3951C349.834 23.3951 347.064 23.6345 344.669 24.1134C342.343 24.5238 340.599 24.9684 339.436 25.4473L338.307 17.5463C339.539 16.9991 341.591 16.486 344.464 16.0072C347.337 15.4599 350.45 15.1863 353.802 15.1863Z" fill="black"/>
<path fill-rule="evenodd" clip-rule="evenodd" d="M284.371 60.4442C284.915 60.6206 285.476 60.7398 286.045 60.7997L288.653 61.1108C289.601 61.2146 290.623 61.3034 291.705 61.3627C292.786 61.422 293.838 61.4664 294.86 61.4664C299.69 61.4664 303.112 59.9849 305.231 57.2737C307.349 54.5625 308.283 49.8661 308.283 43.3622V15.5393H317.765V45.4067C317.798 48.7296 317.42 52.0437 316.639 55.2737C315.969 58.0778 314.723 60.7117 312.979 63.0072C311.21 65.2424 308.893 66.9827 306.253 68.0592C302.955 69.3574 299.425 69.9675 295.882 69.8518C291.74 69.8946 287.602 69.5874 283.512 68.9333C279.941 68.3703 277.082 67.7332 274.904 67.1851L284.371 60.4442Z" fill="#C92500"/>
<path d="M212.703 79.8307C213.456 80.1728 214.414 80.4806 215.577 80.7542C216.808 81.0963 218.005 81.2673 219.168 81.2673C222.93 81.2673 225.872 80.4122 227.992 78.702C230.113 77.0603 232.028 74.3582 233.739 70.5958C229.429 62.387 225.393 53.6993 221.631 44.5328C217.937 35.2979 214.858 25.9604 212.396 16.5203H222.657C223.409 19.5986 224.298 22.9163 225.324 26.4735C226.419 30.0306 227.616 33.6904 228.916 37.4527C230.216 41.2151 231.618 44.9775 233.123 48.7399C234.628 52.5022 236.201 56.1278 237.843 59.6165C240.442 52.4338 242.7 45.3195 244.615 38.2736C246.531 31.2277 248.343 23.9766 250.054 16.5203H259.904C257.441 26.5761 254.705 36.2556 251.695 45.5589C248.685 54.7939 245.436 63.4473 241.947 71.5193C240.579 74.5976 239.143 77.2313 237.638 79.4203C236.201 81.6777 234.594 83.5247 232.815 84.9612C231.036 86.3978 229.018 87.4581 226.761 88.1422C224.572 88.8262 222.075 89.1683 219.27 89.1683C218.518 89.1683 217.731 89.0999 216.91 88.963C216.09 88.8946 215.269 88.7578 214.448 88.5526C213.695 88.4158 212.977 88.2448 212.293 88.0396C211.677 87.8343 211.233 87.6633 210.959 87.5265L212.703 79.8307Z" fill="black"/>
<path d="M173.693 16.5202H193.907V24.5238H173.693V49.1503C173.693 51.8181 173.898 54.0413 174.308 55.8199C174.719 57.5301 175.334 58.8982 176.155 59.9243C176.976 60.882 178.002 61.5661 179.234 61.9765C180.465 62.387 181.901 62.5922 183.543 62.5922C186.416 62.5922 188.708 62.2844 190.418 61.6687C192.197 60.9846 193.428 60.5058 194.112 60.2322L195.959 68.1331C195.001 68.612 193.325 69.1935 190.931 69.8775C188.537 70.63 185.801 71.0062 182.722 71.0062C179.097 71.0062 176.087 70.5616 173.693 69.6723C171.367 68.7146 169.486 67.3123 168.049 65.4653C166.613 63.6183 165.586 61.3609 164.971 58.693C164.424 55.9567 164.15 52.81 164.15 49.2529V1.64177L173.693 0V16.5202Z" fill="black"/>
<path d="M128.012 63.0026C131.911 63.0026 134.784 62.4896 136.631 61.4635C138.547 60.4374 139.505 58.7956 139.505 56.5382C139.505 54.2123 138.581 52.3654 136.734 50.9972C134.887 49.6291 131.843 48.0899 127.602 46.3798C125.55 45.5589 123.566 44.738 121.65 43.9171C119.803 43.0278 118.196 42.0017 116.828 40.8388C115.46 39.6759 114.365 38.2736 113.544 36.6318C112.723 34.99 112.313 32.972 112.313 30.5778C112.313 25.8577 114.057 22.1296 117.546 19.3933C121.035 16.5886 125.789 15.1863 131.809 15.1863C133.314 15.1863 134.819 15.2889 136.324 15.4941C137.829 15.6309 139.231 15.8361 140.531 16.1098C141.83 16.315 142.959 16.5544 143.917 16.828C144.943 17.1017 145.73 17.3411 146.277 17.5463L144.532 25.7551C143.506 25.2079 141.899 24.6606 139.71 24.1134C137.521 23.4977 134.887 23.1899 131.809 23.1899C129.141 23.1899 126.815 23.7371 124.831 24.8316C122.847 25.8577 121.856 27.4995 121.856 29.7569C121.856 30.9198 122.061 31.9459 122.471 32.8352C122.95 33.7245 123.634 34.5454 124.523 35.2979C125.481 35.9819 126.644 36.6318 128.012 37.2475C129.38 37.8631 131.022 38.513 132.937 39.1971C135.469 40.1548 137.726 41.1125 139.71 42.0701C141.694 42.9594 143.37 44.0197 144.738 45.2511C146.174 46.4824 147.269 47.9873 148.021 49.7659C148.774 51.4761 149.15 53.5967 149.15 56.1277C149.15 61.053 147.303 64.7812 143.609 67.3122C139.983 69.8433 134.784 71.1088 128.012 71.1088C123.292 71.1088 119.598 70.6984 116.93 69.8775C114.262 69.125 112.45 68.5436 111.492 68.1331L113.236 59.9243C114.331 60.3348 116.075 60.9504 118.469 61.7713C120.864 62.5922 124.045 63.0026 128.012 63.0026Z" fill="black"/>
<path d="M96.492 68.3384C94.3029 68.8857 91.3957 69.4671 87.7701 70.0828C84.2129 70.6984 80.0743 71.0063 75.3543 71.0063C71.2499 71.0063 67.7953 70.4248 64.9906 69.2619C62.186 68.0306 59.9285 66.3204 58.2184 64.1314C56.5082 61.9424 55.2769 59.3771 54.5244 56.4356C53.7719 53.4257 53.3957 50.108 53.3957 46.4824V16.5203H62.9384V44.4302C62.9384 50.9289 63.9645 55.5805 66.0167 58.3852C68.0689 61.1899 71.5235 62.5922 76.3804 62.5922C77.4065 62.5922 78.4668 62.558 79.5613 62.4896C80.6558 62.4212 81.6819 62.3528 82.6396 62.2844C83.5973 62.1476 84.4524 62.045 85.2048 61.9766C86.0257 61.8398 86.6072 61.7029 86.9492 61.5661V16.5203H96.492V68.3384Z" fill="black"/>
<path d="M28.336 24.6069C28.8521 24.6511 29.3607 24.7707 29.849 24.9626L38.3957 18.2054C36.4448 17.6571 33.8834 17.0791 30.685 16.4716C27.021 15.8174 23.3139 15.51 19.6035 15.5528C16.4299 15.4384 13.2687 16.0486 10.3136 17.3459C7.95013 18.4177 5.87795 20.1594 4.3017 22.399C2.72624 24.6879 1.60437 27.3246 1.01042 30.1342C0.310809 33.3649 -0.0279728 36.6798 0.00180492 40.0033V69.8774H8.42908V42.0483C8.42908 35.543 9.26517 30.9344 11.163 28.1337C13.0608 25.333 16.1264 23.9401 20.4529 23.9401C21.3553 23.9401 22.3109 23.9697 23.2797 24.0438C24.2485 24.1179 25.1642 24.192 26.0135 24.2958L28.336 24.6069Z" fill="#C92500"/>
</svg>
